<svg width="582" height="637" viewBox="0 0 582 637" xmlns="http://www.w3.org/2000/svg"><title>TABLEFLIP</title><defs><linearGradient x1="50%" y1="0%" x2="50%" y2="100%" id="a"><stop stop-color="#50E3C2" offset="0%"/><stop stop-color="#18C8A0" offset="100%"/></linearGradient></defs><g fill="none" fill-rule="evenodd"><path d="M264.14 3.885c9.297-5.18 20.747-5.18 30.043 0L542.98 142.483c9.295 5.18 15.02 14.75 15.02 25.11v277.39c0 10.358-5.725 19.928-15.02 25.127L294.182 608.805c-9.296 5.18-20.746 5.18-30.062 0L15.385 470.11C6.088 464.93.364 455.34.364 444.982v-277.39c0-10.36 5.724-19.93 15.04-25.11L264.14 3.886" stroke="#FFF" stroke-width="23" fill="url(#a)" transform="translate(12 12)"/><path d="M522.48 368.068V197.825c0-1.135 0-2.27-.543-3.405v-1.135c-.545-1.135-.545-1.702-1.09-2.837 0 0 0-.568-.544-.568-.545-1.135-1.09-1.702-2.18-2.837l-.543-.568c-.545-.567-1.634-1.134-2.18-1.702l-.544-.567L296.99 70.71c-3.81-2.27-8.17-2.27-11.98 0L67.143 184.206l-.545.567c-1.09.568-1.635 1.135-2.18 1.702l-.544.568c-.545.567-1.634 1.702-2.18 2.837 0 0 0 .568-.543.568-.545.567-.545 1.702-1.09 2.837v1.135c-.544 1.135-.544 2.27-.544 3.405v170.243c0 7.945 5.99 14.187 13.615 14.187s13.617-6.242 13.617-14.187V220.524l190.63 99.308v161.73c0 7.946 5.993 14.188 13.618 14.188s13.617-6.242 13.617-14.187v-161.73l190.63-99.31V368.07c0 7.945 5.993 14.187 13.618 14.187s13.616-6.242 13.616-14.187zM291 295.43l-187.364-97.605L291 100.22l187.364 97.605L291 295.43z" fill="#FFF"/></g></svg>